<svg width="560" height="560" viewBox="0 0 560 560" fill="none" xmlns="http://www.w3.org/2000/svg">
<rect x="68" y="68" width="425" height="425" rx="136" fill="url(#paint0_linear_33_336)"/>
<path fill-rule="evenodd" clip-rule="evenodd" d="M269.118 188.494C255.126 202.47 239.511 218.118 225.503 232.093L181.92 188.494C195.912 174.519 211.527 158.887 225.503 144.896C228.395 142.02 232.308 140.406 236.386 140.406C240.465 140.406 244.378 142.02 247.27 144.896L269.118 166.76C271.988 169.649 273.598 173.555 273.598 177.627C273.598 181.699 271.988 185.606 269.118 188.494Z" fill="url(#paint1_linear_33_336)" fill-opacity="0.5"/>
<path fill-rule="evenodd" clip-rule="evenodd" d="M236.395 221.283L269.118 254.006C271.99 256.901 273.601 260.813 273.601 264.89C273.601 268.967 271.99 272.879 269.118 275.773L225.422 319.437L181.839 275.854L236.395 221.283Z" fill="url(#paint2_linear_33_336)" fill-opacity="0.5"/>
<path fill-rule="evenodd" clip-rule="evenodd" d="M192.78 264.882C203.708 275.79 214.616 286.697 225.503 297.605C228.385 300.49 230.005 304.402 230.005 308.481C230.005 312.559 228.385 316.471 225.503 319.356C218.242 326.649 210.965 333.927 203.671 341.188C200.786 344.071 196.874 345.69 192.796 345.69C188.717 345.69 184.806 344.071 181.92 341.188L116.49 275.773C113.614 272.881 112 268.968 112 264.89C112 260.811 113.614 256.899 116.49 254.006L181.92 188.494C184.812 185.624 188.721 184.013 192.796 184.013C196.87 184.013 200.78 185.624 203.671 188.494L225.503 210.343C228.385 213.228 230.005 217.139 230.005 221.218C230.005 225.296 228.385 229.208 225.503 232.093C214.628 243.055 203.72 253.985 192.78 264.882Z" fill="url(#paint3_linear_33_336)"/>
<path fill-rule="evenodd" clip-rule="evenodd" d="M290.869 341.188L334.451 297.605L378.05 341.188C364.075 355.196 348.443 370.811 334.451 384.803C331.563 387.673 327.656 389.283 323.584 389.283C319.512 389.283 315.606 387.673 312.717 384.803L290.869 362.955C287.986 360.066 286.367 356.152 286.367 352.071C286.367 347.99 287.986 344.076 290.869 341.188Z" fill="white" fill-opacity="0.5"/>
<path fill-rule="evenodd" clip-rule="evenodd" d="M323.592 308.497L290.869 275.773C287.986 272.885 286.367 268.971 286.367 264.89C286.367 260.809 287.986 256.895 290.869 254.006L334.452 210.407L378.05 254.006L323.592 308.497Z" fill="white" fill-opacity="0.5"/>
<path fill-rule="evenodd" clip-rule="evenodd" d="M367.175 264.882L334.451 232.158C331.573 229.271 329.957 225.36 329.957 221.283C329.957 217.206 331.573 213.295 334.451 210.407L356.3 188.494C359.191 185.624 363.1 184.013 367.175 184.013C371.249 184.013 375.159 185.624 378.05 188.494L443.497 253.941C446.374 256.833 447.988 260.746 447.988 264.825C447.988 268.904 446.374 272.816 443.497 275.708C421.682 297.503 399.866 319.307 378.05 341.123C375.165 344.006 371.253 345.625 367.175 345.625C363.096 345.625 359.185 344.006 356.3 341.123L334.451 319.291C331.573 316.403 329.957 312.493 329.957 308.416C329.957 304.339 331.573 300.428 334.451 297.54L367.175 264.817V264.882Z" fill="url(#paint4_linear_33_336)"/>
<defs>
<linearGradient id="paint0_linear_33_336" x1="110.5" y1="480.5" x2="463" y2="103.5" gradientUnits="userSpaceOnUse">
<stop stop-color="#FFC93E"/>
<stop offset="1" stop-color="#FFD260"/>
</linearGradient>
<linearGradient id="paint1_linear_33_336" x1="258.194" y1="155.885" x2="203.704" y2="210.359" gradientUnits="userSpaceOnUse">
<stop stop-color="white"/>
<stop offset="1" stop-color="white"/>
</linearGradient>
<linearGradient id="paint2_linear_33_336" x1="22519.5" y1="21484.4" x2="19228" y2="24561.6" gradientUnits="userSpaceOnUse">
<stop stop-color="white"/>
<stop offset="1" stop-color="white"/>
</linearGradient>
<linearGradient id="paint3_linear_33_336" x1="111.993" y1="264.882" x2="230.015" y2="264.882" gradientUnits="userSpaceOnUse">
<stop stop-color="#FFF5DB"/>
<stop offset="1" stop-color="white"/>
</linearGradient>
<linearGradient id="paint4_linear_33_336" x1="42863.4" y1="37364.3" x2="34280.1" y2="37364.3" gradientUnits="userSpaceOnUse">
<stop stop-color="#FFF6DD"/>
<stop offset="1" stop-color="white"/>
</linearGradient>
</defs>
</svg>
