<svg width="196" height="64" viewBox="0 0 196 64" fill="none" xmlns="http://www.w3.org/2000/svg">
<path d="M189.999 55.5508C191.489 40.7703 193.752 20.3881 191.17 5.98671C147.067 4.96126 103.09 4.26525 58.9533 5.22947C42.2048 5.5954 24.1542 8.70363 7.49705 6.79784C8.11941 20.0086 8.13844 33.2019 8.65544 46.3924C8.8672 51.7944 10.7956 57.5661 10.2176 62.9653C59.6034 62.5931 109.029 58.0845 158.449 59.691C167.921 59.9991 177.494 58.5653 186.964 59.6979C161.991 57.5849 136.457 59.4219 111.429 59.738C94.6958 59.9494 77.9592 57.4231 61.1671 57.5466C45.2892 57.6634 29.4281 60.824 13.5959 60.616C9.77417 41.6145 4.79337 22.2746 2.34172 3.02821C12.4327 2.81682 22.511 1.41579 32.5849 1.33317C86.21 0.893211 139.766 1.63683 193.325 3.80454C193.234 20.8396 189.243 37.2819 188.208 54.1433C186.778 36.6167 190.358 19.0649 189.353 1.59279C182.757 0.0678249 175.062 1.08299 168.345 0.968914C150.647 0.667989 133.131 0.312122 115.432 0.85148C93.1724 1.52966 71.0201 2.54925 48.7639 3.54786C33.509 4.23212 16.4988 2.97138 1.49261 6.58394C3.04861 25.1425 4.89563 43.7073 6.66985 62.2325" stroke="white" stroke-miterlimit="1.5" stroke-linecap="round" stroke-linejoin="round"/>
</svg>
